{
  "version": "1.1.6",
  "modules": [
    {
      "id": 1,
      "plugin": "Core",
      "version": "1.1.6",
      "model": "AudioInterface",
      "params": [],
      "leftModuleId": 3,
      "data": {
        "audio": {
          "driver": 6,
          "deviceName": "Speakers (Komplete Audio 2)",
          "offset": 0,
          "maxChannels": 8,
          "sampleRate": 44100,
          "blockSize": 256
        }
      },
      "pos": [
        57,
        0
      ]
    },
    {
      "id": 2,
      "plugin": "gen-rack",
      "version": "1.0.0-beta",
      "model": "gigaverb",
      "params": [
        {
          "id": 0,
          "value": 0.595500171
        },
        {
          "id": 1,
          "value": 0.607499957
        },
        {
          "id": 2,
          "value": 0.606000006
        },
        {
          "id": 3,
          "value": 0.259499997
        },
        {
          "id": 4,
          "value": 0.411849946
        },
        {
          "id": 5,
          "value": 189.036957
        },
        {
          "id": 6,
          "value": 53.1000023
        },
        {
          "id": 7,
          "value": 0.153000012
        }
      ],
      "leftModuleId": 8,
      "rightModuleId": 3,
      "pos": [
        33,
        0
      ]
    },
    {
      "id": 3,
      "plugin": "Fundamental",
      "version": "1.4.0",
      "model": "VCMixer",
      "params": [
        {
          "id": 0,
          "value": 1.0
        },
        {
          "id": 1,
          "value": 1.0
        },
        {
          "id": 2,
          "value": 1.0
        },
        {
          "id": 3,
          "value": 1.0
        },
        {
          "id": 4,
          "value": 1.0
        }
      ],
      "leftModuleId": 2,
      "rightModuleId": 1,
      "pos": [
        47,
        0
      ]
    },
    {
      "id": 4,
      "plugin": "Core",
      "version": "1.1.6",
      "model": "MIDIToCVInterface",
      "params": [],
      "rightModuleId": 5,
      "data": {
        "channels": 1,
        "polyMode": 0,
        "clockDivision": 24,
        "lastPitch": 8192,
        "lastMod": 0,
        "midi": {
          "driver": -11,
          "deviceName": "QWERTY keyboard (US)",
          "channel": -1
        }
      },
      "pos": [
        0,
        0
      ]
    },
    {
      "id": 5,
      "plugin": "Fundamental",
      "version": "1.4.0",
      "model": "VCO2",
      "params": [
        {
          "id": 0,
          "value": 1.0
        },
        {
          "id": 1,
          "value": 1.0
        },
        {
          "id": 2,
          "value": 0.0
        },
        {
          "id": 3,
          "value": 2.98950028
        },
        {
          "id": 4,
          "value": 1.0
        }
      ],
      "leftModuleId": 4,
      "rightModuleId": 7,
      "pos": [
        8,
        0
      ]
    },
    {
      "id": 6,
      "plugin": "Fundamental",
      "version": "1.4.0",
      "model": "VCA-1",
      "params": [
        {
          "id": 0,
          "value": 1.0
        },
        {
          "id": 1,
          "value": 1.0
        }
      ],
      "leftModuleId": 7,
      "rightModuleId": 8,
      "pos": [
        22,
        0
      ]
    },
    {
      "id": 7,
      "plugin": "Fundamental",
      "version": "1.4.0",
      "model": "ADSR",
      "params": [
        {
          "id": 0,
          "value": 0.0
        },
        {
          "id": 1,
          "value": 0.5
        },
        {
          "id": 2,
          "value": 0.199500024
        },
        {
          "id": 3,
          "value": 0.5
        }
      ],
      "leftModuleId": 5,
      "rightModuleId": 6,
      "pos": [
        14,
        0
      ]
    },
    {
      "id": 8,
      "plugin": "Fundamental",
      "version": "1.4.0",
      "model": "8vert",
      "params": [
        {
          "id": 0,
          "value": 0.0
        },
        {
          "id": 1,
          "value": 0.0
        },
        {
          "id": 2,
          "value": 0.0
        },
        {
          "id": 3,
          "value": 0.0
        },
        {
          "id": 4,
          "value": 0.0
        },
        {
          "id": 5,
          "value": 0.0
        },
        {
          "id": 6,
          "value": 0.0
        },
        {
          "id": 7,
          "value": 0.0
        }
      ],
      "leftModuleId": 6,
      "rightModuleId": 2,
      "pos": [
        25,
        0
      ]
    }
  ],
  "cables": [
    {
      "id": 0,
      "outputModuleId": 2,
      "outputId": 0,
      "inputModuleId": 3,
      "inputId": 1,
      "color": "#918ae0"
    },
    {
      "id": 1,
      "outputModuleId": 2,
      "outputId": 1,
      "inputModuleId": 3,
      "inputId": 2,
      "color": "#88c478"
    },
    {
      "id": 2,
      "outputModuleId": 6,
      "outputId": 0,
      "inputModuleId": 2,
      "inputId": 0,
      "color": "#01baef"
    },
    {
      "id": 3,
      "outputModuleId": 6,
      "outputId": 0,
      "inputModuleId": 2,
      "inputId": 1,
      "color": "#f5c079"
    },
    {
      "id": 4,
      "outputModuleId": 7,
      "outputId": 0,
      "inputModuleId": 6,
      "inputId": 0,
      "color": "#918ae0"
    },
    {
      "id": 5,
      "outputModuleId": 4,
      "outputId": 1,
      "inputModuleId": 7,
      "inputId": 4,
      "color": "#88c478"
    },
    {
      "id": 6,
      "outputModuleId": 4,
      "outputId": 0,
      "inputModuleId": 5,
      "inputId": 0,
      "color": "#01baef"
    },
    {
      "id": 7,
      "outputModuleId": 5,
      "outputId": 0,
      "inputModuleId": 6,
      "inputId": 1,
      "color": "#f5c079"
    },
    {
      "id": 8,
      "outputModuleId": 3,
      "outputId": 0,
      "inputModuleId": 1,
      "inputId": 0,
      "color": "#918ae0"
    },
    {
      "id": 9,
      "outputModuleId": 3,
      "outputId": 0,
      "inputModuleId": 1,
      "inputId": 1,
      "color": "#88c478"
    }
  ]
}